<svg xmlns="http://www.w3.org/2000/svg" width="27" height="33" viewBox="0 0 27 33">
    <path fill="#303538" fill-rule="evenodd" d="M13.31 0c.052 0 .104.002.156.007 2.062.084 4.676.97 5.41 3.213a11.44 11.44 0 0 1 .501 4.2c.155.449.201 1.005.087 1.671-.133.765-.417 1.31-.768 1.68-.24.772-.593 1.646-1.102 2.465.09.095.166.196.231.303.957.826 1.948 1.206 2.991 1.605 1.113.426 2.264.867 3.215 1.838 1.725 1.764 2.295 7.508 2.481 10.776a1.868 1.868 0 0 1-.507 1.389c-.5.53-3.46 3.172-12.638 3.172h-.218c-9.176 0-12.138-2.641-12.638-3.171a1.865 1.865 0 0 1-.508-1.391C.19 24.49.76 18.746 2.486 16.982c.95-.97 2.1-1.412 3.213-1.84.991-.38 1.933-.742 2.844-1.484.081-.124.18-.239.292-.344-.484-.842-.812-1.763-1.033-2.576-.337-.369-.608-.906-.737-1.651-.1-.575-.077-1.062.028-1.466-.138-1.364.04-3.049.482-4.398C8.31.969 10.942.084 13.01.006c.048-.004.097-.006.146-.006l.072.001.07-.001h.012zm0 1.869h-.013l-.07.001-.072-.001h-.012v.002c-1.466.041-3.356.598-3.79 1.932-.434 1.319-.542 3.03-.332 4.102-.137.048-.19.422-.114.864.076.44.25.78.396.78l.016-.001c.04-.008.071-.046.097-.101.25 1.222.671 2.45 1.306 3.354v1.392c-.022-.021-.044-.037-.066-.06a5.275 5.275 0 0 0-.285.299 8.788 8.788 0 0 1-.265.252c.016.017.033.03.05.047-2.366 2.204-4.884 2.076-6.334 3.558-1.493 1.526-1.953 9.575-1.953 9.575s2.444 2.585 11.28 2.585h.218c8.837 0 11.28-2.585 11.28-2.585s-.46-8.049-1.953-9.575c-1.487-1.52-4.094-1.341-6.51-3.723.013-.02.031-.033.047-.051-.028-.029-.058-.055-.086-.083a3.942 3.942 0 0 0-.39-.394c-.048.055-.1.095-.15.147V12.82c.721-.903 1.22-2.132 1.513-3.356.024.048.056.077.092.084l.016.001c.145 0 .32-.34.397-.78.078-.457.021-.849-.128-.875h-.006c-.02 0-.04.017-.06.027.213-1.07.106-2.792-.329-4.118-.437-1.334-2.325-1.891-3.79-1.932v-.002z"/>
</svg>
