<svg xmlns="http://www.w3.org/2000/svg" width="21" height="33" viewBox="0 0 21 33">
    <path fill="#303538" fill-rule="evenodd" d="M17.505 0c1.388 0 2.516 1.346 2.516 3v26.494c0 1.654-1.128 3-2.516 3H2.516c-1.387 0-2.516-1.346-2.516-3V3c0-1.654 1.129-3 2.516-3h14.989zm.839 27.494V3c0-.551-.376-1-.839-1H2.516c-.463 0-.839.449-.839 1v24.494c0 .551.376 1 .839 1h14.989c.463 0 .839-.449.839-1zm-8.333-9.815a1.543 1.543 0 1 1 0 3.087 1.543 1.543 0 0 1 0-3.087zm0-7.728a8.8 8.8 0 0 1 6.265 2.594.956.956 0 0 1-1.35 1.35 6.902 6.902 0 0 0-4.915-2.035 6.9 6.9 0 0 0-4.914 2.035.954.954 0 0 1-1.35-1.35 8.792 8.792 0 0 1 6.264-2.594zm-.001 3.79c1.603 0 3.114.626 4.249 1.758a.954.954 0 0 1 0 1.35.943.943 0 0 1-1.35 0 4.086 4.086 0 0 0-2.9-1.198 4.065 4.065 0 0 0-2.895 1.198.956.956 0 1 1-1.352-1.35 5.974 5.974 0 0 1 4.248-1.758zm.834 17.541c.535 0 .972-.378.972-.839 0-.462-.437-.84-.972-.84H9.177c-.534 0-.971.378-.971.84 0 .461.437.839.971.839h1.667z"/>
</svg>
