<svg xmlns="http://www.w3.org/2000/svg" width="38" height="33" viewBox="0 0 38 33">
    <path fill="#303538" fill-rule="evenodd" d="M22.718 18.67a3.682 3.682 0 0 0-3.677-3.676 3.682 3.682 0 0 0-3.678 3.676 3.683 3.683 0 0 0 3.678 3.677 3.682 3.682 0 0 0 3.677-3.677zm1 0a4.683 4.683 0 0 1-4.677 4.677 4.684 4.684 0 0 1-4.678-4.677 4.683 4.683 0 0 1 4.678-4.676 4.683 4.683 0 0 1 4.677 4.676zm5.67 10.774H8.69c-.884 0-1.623.766-1.912 1.602-.21.604-.462 1.382-.622 1.854h25.766c-.146-.454-.432-1.282-.622-1.854-.278-.84-1.027-1.602-1.912-1.602zm-16.913-4.019h13.129V20.251c0-4.425-2.699-7.516-6.564-7.516-3.866 0-6.565 3.091-6.565 7.516V25.425zm-2-5.174c0-5.513 3.602-9.516 8.565-9.516 4.963 0 8.564 4.003 8.564 9.516v4.925c.613.236 1.135.788 1.372 1.5l.614 1.833H8.489l.341-1.021c.09-.272.187-.565.276-.82.214-.619.697-1.242 1.369-1.497v-4.92zm.474-9.123a.621.621 0 0 0 0-.879c-.243-.243-4.944-4.551-5.187-4.308-.242.242 4.065 4.944 4.308 5.187a.621.621 0 0 0 .879 0zM7.178 18.71a.623.623 0 0 0-.622-.623c-.344 0-6.556.279-6.556.623 0 .342 6.212.621 6.556.621a.622.622 0 0 0 .622-.621zm20.831-7.582c.242-.243 4.088-4.483 3.846-4.726-.242-.242-4.483 3.604-4.726 3.847a.623.623 0 0 0 .88.879zm2.892 7.582c0 .342.278.621.622.621.343 0 6.555-.279 6.555-.621 0-.344-6.212-.623-6.555-.623a.622.622 0 0 0-.622.623zM19.04 7.177a.621.621 0 0 0 .621-.621c0-.344-.278-6.556-.621-6.556-.344 0-.622 6.212-.622 6.556 0 .343.278.621.622.621zm2.668 11.493a2.458 2.458 0 0 1-2.458 2.457v-4.914a2.46 2.46 0 0 1 2.458 2.457z"/>
</svg>
