<svg xmlns="http://www.w3.org/2000/svg" width="40" height="27" viewBox="0 0 40 27">
    <path fill="#303538" fill-rule="evenodd" d="M34.009.278c2.8 0 5.078 2.277 5.078 5.077v15.578c0 2.8-2.278 5.078-5.078 5.078H5.078A5.084 5.084 0 0 1 0 20.933V5.355C0 2.555 2.278.278 5.078.278h28.93zm3.078 20.655V5.355a3.082 3.082 0 0 0-3.078-3.077H5.078A3.082 3.082 0 0 0 2 5.355v15.578a3.082 3.082 0 0 0 3.078 3.078h28.93a3.082 3.082 0 0 0 3.079-3.078zM19.543 4.038c4.23 0 7.673 4.085 7.673 9.106 0 5.02-3.442 9.106-7.673 9.106-4.23 0-7.672-4.085-7.672-9.106s3.442-9.106 7.672-9.106zm0 16.72c3.409 0 6.18-3.416 6.18-7.614 0-4.2-2.771-7.614-6.18-7.614-3.408 0-6.18 3.415-6.18 7.614 0 4.198 2.772 7.614 6.18 7.614zm.604-8.405c1.59.584 2.494 1.3 2.494 2.541 0 1.261-.86 2.148-2.14 2.493v1.243a.348.348 0 0 1-.344.353h-1.26c-.19 0-.344-.158-.344-.45v-1.088c-.709.034-1.275-.189-1.809-.497a.272.272 0 0 1-.124-.32l.352-1.255a.264.264 0 0 1 .165-.172.282.282 0 0 1 .1-.02c.048 0 .097.014.141.04.415.24 1.137.571 1.814.571.715 0 1.241-.189 1.241-.766 0-.47-.363-.88-1.466-1.285-1.55-.555-2.52-1.302-2.52-2.413 0-1.143.924-2.024 2.106-2.398V7.658c0-.195.153-.354.344-.354h1.26a.35.35 0 0 1 .343.354v1.186c.63.064 1.403.317 1.82.585a.27.27 0 0 1 .112.315l-.359 1.215a.284.284 0 0 1-.266.19.29.29 0 0 1-.15-.044c-.258-.163-1.093-.734-1.796-.734-.644 0-1.204.284-1.204.776 0 .46.434.794 1.49 1.206z"/>
</svg>
