<svg xmlns="http://www.w3.org/2000/svg" width="36" height="31" viewBox="0 0 36 31">
    <path fill="#303538" fill-rule="evenodd" d="M32.803 27.806c-.115.44-.593.793-.914.793H3.95c-.32 0-.8-.354-.9-.728-1.51-8.014-1.51-17.207-.014-25.155.115-.44.593-.794.914-.794h27.938c.32 0 .799.354.899.728 1.51 8.011 1.51 17.204.015 25.156M34.662 2.23c1.568 8.303 1.569 17.755.016 25.997-.341 1.316-1.56 2.295-2.79 2.295H3.952c-1.23 0-2.447-.979-2.774-2.229C-.39 19.987-.39 10.535 1.163 2.294 1.505.98 2.723 0 3.95 0h27.938c1.228 0 2.447.98 2.773 2.23zM19.698 22.014H16.14a.229.229 0 0 0-.23.23v3.4c0 .128.103.23.23.23h3.557a.23.23 0 0 0 .23-.23v-3.4a.23.23 0 0 0-.23-.23zm-6.838-6.5H9.303a.23.23 0 0 0-.229.228v3.401c0 .127.103.23.23.23h3.556a.23.23 0 0 0 .231-.23v-3.4a.23.23 0 0 0-.23-.23zm0 6.5H9.303a.23.23 0 0 0-.229.23v3.4c0 .128.103.23.23.23h3.556a.23.23 0 0 0 .231-.23v-3.4a.23.23 0 0 0-.23-.23zm13.676-6.5H22.98a.23.23 0 0 0-.23.228v3.401c0 .127.102.23.23.23h3.557a.23.23 0 0 0 .23-.23v-3.4a.23.23 0 0 0-.23-.23zm-6.838 0H16.14a.229.229 0 0 0-.23.228v3.401c0 .127.103.23.23.23h3.557a.23.23 0 0 0 .23-.23v-3.4a.23.23 0 0 0-.23-.23zm9.114-11.052H7.029a.473.473 0 0 0-.473.474v7.21c0 .261.21.472.473.472h21.783a.472.472 0 0 0 .472-.473V4.936a.473.473 0 0 0-.472-.474zm-2.276 17.552H22.98a.23.23 0 0 0-.23.23v3.4c0 .128.102.23.23.23h3.557a.23.23 0 0 0 .23-.23v-3.4a.23.23 0 0 0-.23-.23z"/>
</svg>
