<svg xmlns="http://www.w3.org/2000/svg" width="20" height="32" viewBox="0 0 20 32">
    <path fill="#303538" fill-rule="evenodd" d="M17.507 28.92c0 .642-.659.918-7.577.918s-7.576-.276-7.576-.918V5.671c0-.51.416-.98 4.06-1.15a.476.476 0 0 0 .343-.456V2.476c0-.262.215-.476.476-.476h5.394c.262 0 .476.214.476.476v1.59c0 .215.146.396.343.454 3.644.171 4.061.64 4.061 1.151v23.25zM15.103 2.618c2.18.191 4.404.75 4.404 3.053v23.25c0 1.03-.504 2.33-2.907 2.678-1.155.168-3.15.24-6.67.24s-5.514-.072-6.669-.24C.858 31.251.354 29.95.354 28.92V5.671c0-2.303 2.223-2.862 4.403-3.053v-.142A2.48 2.48 0 0 1 7.233 0h5.394a2.48 2.48 0 0 1 2.476 2.476v.142zm-11.146 24.8c0 .507.52.725 5.973.725 5.454 0 5.973-.218 5.973-.724v-8.802L3.957 23.364v4.055z"/>
</svg>
